<svg id="visual" viewBox="0 0 960 540" width="960" height="540" xmlns="http://www.w3.org/2000/svg" xmlns:xlink="http://www.w3.org/1999/xlink" version="1.1"><g stroke-width="1" stroke-linejoin="bevel"><path d="M498 271L528 251L497 197Z" fill="#9f9f9f" stroke="#9f9f9f"></path><path d="M497 197L460 247L498 271Z" fill="#878787" stroke="#878787"></path><path d="M418 233L448 251L460 247Z" fill="#000000" stroke="#000000"></path><path d="M460 247L448 251L498 271Z" fill="#585858" stroke="#585858"></path><path d="M528 251L549 232L497 197Z" fill="#878787" stroke="#878787"></path><path d="M549 232L523 183L497 197Z" fill="#424242" stroke="#424242"></path><path d="M481 136L452 177L497 197Z" fill="#1a1a1a" stroke="#1a1a1a"></path><path d="M497 197L452 177L460 247Z" fill="#2e2e2e" stroke="#2e2e2e"></path><path d="M448 251L491 309L498 271Z" fill="#000000" stroke="#000000"></path><path d="M498 271L535 329L528 251Z" fill="#6f6f6f" stroke="#6f6f6f"></path><path d="M561 321L583 225L549 232Z" fill="#9f9f9f" stroke="#9f9f9f"></path><path d="M452 177L431 193L460 247Z" fill="#424242" stroke="#424242"></path><path d="M431 193L418 233L460 247Z" fill="#000000" stroke="#000000"></path><path d="M448 251L400 283L491 309Z" fill="#1a1a1a" stroke="#1a1a1a"></path><path d="M431 193L414 221L418 233Z" fill="#b8b8b8" stroke="#b8b8b8"></path><path d="M549 232L546 167L523 183Z" fill="#585858" stroke="#585858"></path><path d="M523 183L481 136L497 197Z" fill="#424242" stroke="#424242"></path><path d="M561 321L549 232L528 251Z" fill="#000000" stroke="#000000"></path><path d="M549 232L583 225L546 167Z" fill="#1a1a1a" stroke="#1a1a1a"></path><path d="M414 221L406 260L418 233Z" fill="#424242" stroke="#424242"></path><path d="M418 233L406 260L448 251Z" fill="#9f9f9f" stroke="#9f9f9f"></path><path d="M546 167L481 136L523 183Z" fill="#424242" stroke="#424242"></path><path d="M452 177L399 187L431 193Z" fill="#878787" stroke="#878787"></path><path d="M491 309L535 329L498 271Z" fill="#9f9f9f" stroke="#9f9f9f"></path><path d="M491 309L527 333L535 329Z" fill="#2e2e2e" stroke="#2e2e2e"></path><path d="M525 373L527 333L461 382Z" fill="#d2d2d2" stroke="#d2d2d2"></path><path d="M307 226L400 283L406 260Z" fill="#d2d2d2" stroke="#d2d2d2"></path><path d="M406 260L400 283L448 251Z" fill="#6f6f6f" stroke="#6f6f6f"></path><path d="M435 88L399 187L452 177Z" fill="#585858" stroke="#585858"></path><path d="M431 193L399 187L414 221Z" fill="#ececec" stroke="#ececec"></path><path d="M414 221L380 205L406 260Z" fill="#ececec" stroke="#ececec"></path><path d="M542 384L561 321L535 329Z" fill="#000000" stroke="#000000"></path><path d="M535 329L561 321L528 251Z" fill="#000000" stroke="#000000"></path><path d="M583 225L589 166L546 167Z" fill="#000000" stroke="#000000"></path><path d="M520 96L479 107L481 136Z" fill="#6f6f6f" stroke="#6f6f6f"></path><path d="M399 187L380 205L414 221Z" fill="#1a1a1a" stroke="#1a1a1a"></path><path d="M589 166L577 142L546 167Z" fill="#878787" stroke="#878787"></path><path d="M353 172L377 189L399 187Z" fill="#9f9f9f" stroke="#9f9f9f"></path><path d="M399 187L377 189L380 205Z" fill="#585858" stroke="#585858"></path><path d="M520 96L481 136L546 167Z" fill="#d2d2d2" stroke="#d2d2d2"></path><path d="M481 136L435 88L452 177Z" fill="#878787" stroke="#878787"></path><path d="M496 83L477 103L479 107Z" fill="#6f6f6f" stroke="#6f6f6f"></path><path d="M479 107L435 88L481 136Z" fill="#585858" stroke="#585858"></path><path d="M589 166L581 133L577 142Z" fill="#9f9f9f" stroke="#9f9f9f"></path><path d="M577 142L520 96L546 167Z" fill="#2e2e2e" stroke="#2e2e2e"></path><path d="M635 260L618 180L583 225Z" fill="#2e2e2e" stroke="#2e2e2e"></path><path d="M583 225L618 180L589 166Z" fill="#424242" stroke="#424242"></path><path d="M589 166L618 180L581 133Z" fill="#b8b8b8" stroke="#b8b8b8"></path><path d="M581 133L520 96L577 142Z" fill="#585858" stroke="#585858"></path><path d="M461 382L527 333L491 309Z" fill="#1a1a1a" stroke="#1a1a1a"></path><path d="M527 333L525 373L535 329Z" fill="#2e2e2e" stroke="#2e2e2e"></path><path d="M400 283L437 364L491 309Z" fill="#d2d2d2" stroke="#d2d2d2"></path><path d="M649 279L635 260L561 321Z" fill="#1a1a1a" stroke="#1a1a1a"></path><path d="M561 321L635 260L583 225Z" fill="#b8b8b8" stroke="#b8b8b8"></path><path d="M302 311L384 329L400 283Z" fill="#000000" stroke="#000000"></path><path d="M400 283L384 329L437 364Z" fill="#2e2e2e" stroke="#2e2e2e"></path><path d="M307 226L406 260L380 205Z" fill="#6f6f6f" stroke="#6f6f6f"></path><path d="M520 96L496 83L479 107Z" fill="#1a1a1a" stroke="#1a1a1a"></path><path d="M395 77L353 172L399 187Z" fill="#2e2e2e" stroke="#2e2e2e"></path><path d="M419 376L461 382L437 364Z" fill="#1a1a1a" stroke="#1a1a1a"></path><path d="M437 364L461 382L491 309Z" fill="#9f9f9f" stroke="#9f9f9f"></path><path d="M435 88L479 107L477 103Z" fill="#424242" stroke="#424242"></path><path d="M377 189L353 172L380 205Z" fill="#2e2e2e" stroke="#2e2e2e"></path><path d="M544 406L542 384L525 373Z" fill="#585858" stroke="#585858"></path><path d="M525 373L542 384L535 329Z" fill="#000000" stroke="#000000"></path><path d="M479 46L435 88L477 103Z" fill="#6f6f6f" stroke="#6f6f6f"></path><path d="M655 324L649 279L561 321Z" fill="#2e2e2e" stroke="#2e2e2e"></path><path d="M635 260L686 178L618 180Z" fill="#ececec" stroke="#ececec"></path><path d="M384 329L419 376L437 364Z" fill="#6f6f6f" stroke="#6f6f6f"></path><path d="M384 329L383 360L419 376Z" fill="#2e2e2e" stroke="#2e2e2e"></path><path d="M346 390L383 360L384 329Z" fill="#424242" stroke="#424242"></path><path d="M383 360L401 383L419 376Z" fill="#585858" stroke="#585858"></path><path d="M459 469L480 459L461 382Z" fill="#000000" stroke="#000000"></path><path d="M461 382L544 406L525 373Z" fill="#424242" stroke="#424242"></path><path d="M688 285L671 265L649 279Z" fill="#878787" stroke="#878787"></path><path d="M649 279L671 265L635 260Z" fill="#585858" stroke="#585858"></path><path d="M569 428L544 406L563 437Z" fill="#585858" stroke="#585858"></path><path d="M623 370L655 324L561 321Z" fill="#6f6f6f" stroke="#6f6f6f"></path><path d="M618 180L618 102L581 133Z" fill="#1a1a1a" stroke="#1a1a1a"></path><path d="M581 133L558 62L520 96Z" fill="#d2d2d2" stroke="#d2d2d2"></path><path d="M520 96L558 62L496 83Z" fill="#b8b8b8" stroke="#b8b8b8"></path><path d="M681 161L618 102L618 180Z" fill="#ececec" stroke="#ececec"></path><path d="M618 102L558 62L581 133Z" fill="#000000" stroke="#000000"></path><path d="M408 35L395 77L435 88Z" fill="#585858" stroke="#585858"></path><path d="M623 370L561 321L542 384Z" fill="#585858" stroke="#585858"></path><path d="M479 46L477 103L496 83Z" fill="#1a1a1a" stroke="#1a1a1a"></path><path d="M435 88L395 77L399 187Z" fill="#000000" stroke="#000000"></path><path d="M569 428L623 370L542 384Z" fill="#000000" stroke="#000000"></path><path d="M295 221L307 226L353 172Z" fill="#6f6f6f" stroke="#6f6f6f"></path><path d="M353 172L307 226L380 205Z" fill="#2e2e2e" stroke="#2e2e2e"></path><path d="M558 62L479 46L496 83Z" fill="#424242" stroke="#424242"></path><path d="M688 285L688 259L671 265Z" fill="#2e2e2e" stroke="#2e2e2e"></path><path d="M671 265L686 178L635 260Z" fill="#585858" stroke="#585858"></path><path d="M688 259L686 178L671 265Z" fill="#000000" stroke="#000000"></path><path d="M686 297L649 279L684 309Z" fill="#ececec" stroke="#ececec"></path><path d="M686 297L688 285L649 279Z" fill="#ececec" stroke="#ececec"></path><path d="M686 178L681 161L618 180Z" fill="#ececec" stroke="#ececec"></path><path d="M395 77L340 107L353 172Z" fill="#9f9f9f" stroke="#9f9f9f"></path><path d="M290 133L295 221L353 172Z" fill="#1a1a1a" stroke="#1a1a1a"></path><path d="M288 281L302 311L400 283Z" fill="#9f9f9f" stroke="#9f9f9f"></path><path d="M684 309L649 279L655 324Z" fill="#9f9f9f" stroke="#9f9f9f"></path><path d="M691 317L684 309L655 324Z" fill="#1a1a1a" stroke="#1a1a1a"></path><path d="M563 437L544 406L529 456Z" fill="#000000" stroke="#000000"></path><path d="M544 406L569 428L542 384Z" fill="#000000" stroke="#000000"></path><path d="M672 358L691 317L655 324Z" fill="#1a1a1a" stroke="#1a1a1a"></path><path d="M288 281L400 283L307 226Z" fill="#585858" stroke="#585858"></path><path d="M383 360L346 390L401 383Z" fill="#878787" stroke="#878787"></path><path d="M408 35L353 81L395 77Z" fill="#9f9f9f" stroke="#9f9f9f"></path><path d="M395 77L353 81L340 107Z" fill="#2e2e2e" stroke="#2e2e2e"></path><path d="M295 221L288 281L307 226Z" fill="#2e2e2e" stroke="#2e2e2e"></path><path d="M618 102L579 39L558 62Z" fill="#9f9f9f" stroke="#9f9f9f"></path><path d="M558 62L499 0L479 46Z" fill="#1a1a1a" stroke="#1a1a1a"></path><path d="M636 41L579 39L618 102Z" fill="#878787" stroke="#878787"></path><path d="M672 358L655 324L623 370Z" fill="#1a1a1a" stroke="#1a1a1a"></path><path d="M684 309L691 317L686 297Z" fill="#2e2e2e" stroke="#2e2e2e"></path><path d="M686 297L691 317L688 285Z" fill="#878787" stroke="#878787"></path><path d="M731 172L712 188L753 208Z" fill="#2e2e2e" stroke="#2e2e2e"></path><path d="M688 259L712 188L686 178Z" fill="#878787" stroke="#878787"></path><path d="M529 456L544 406L480 459Z" fill="#b8b8b8" stroke="#b8b8b8"></path><path d="M618 442L672 358L623 370Z" fill="#b8b8b8" stroke="#b8b8b8"></path><path d="M302 311L346 390L384 329Z" fill="#585858" stroke="#585858"></path><path d="M480 459L544 406L461 382Z" fill="#ececec" stroke="#ececec"></path><path d="M618 442L623 370L569 428Z" fill="#ececec" stroke="#ececec"></path><path d="M479 46L408 35L435 88Z" fill="#9f9f9f" stroke="#9f9f9f"></path><path d="M451 5L408 35L479 46Z" fill="#424242" stroke="#424242"></path><path d="M686 178L712 188L681 161Z" fill="#585858" stroke="#585858"></path><path d="M649 50L636 41L618 102Z" fill="#d2d2d2" stroke="#d2d2d2"></path><path d="M712 188L688 259L753 208Z" fill="#b8b8b8" stroke="#b8b8b8"></path><path d="M353 81L322 93L340 107Z" fill="#585858" stroke="#585858"></path><path d="M340 107L290 133L353 172Z" fill="#b8b8b8" stroke="#b8b8b8"></path><path d="M324 49L322 93L353 81Z" fill="#424242" stroke="#424242"></path><path d="M461 382L408 459L459 469Z" fill="#2e2e2e" stroke="#2e2e2e"></path><path d="M461 382L419 376L408 459Z" fill="#9f9f9f" stroke="#9f9f9f"></path><path d="M295 221L272 277L288 281Z" fill="#b8b8b8" stroke="#b8b8b8"></path><path d="M288 281L259 282L302 311Z" fill="#878787" stroke="#878787"></path><path d="M302 311L249 353L346 390Z" fill="#1a1a1a" stroke="#1a1a1a"></path><path d="M259 282L272 277L295 221Z" fill="#9f9f9f" stroke="#9f9f9f"></path><path d="M322 93L290 133L340 107Z" fill="#ececec" stroke="#ececec"></path><path d="M480 459L519 465L529 456Z" fill="#d2d2d2" stroke="#d2d2d2"></path><path d="M593 458L569 428L563 437Z" fill="#424242" stroke="#424242"></path><path d="M499 0L451 5L479 46Z" fill="#1a1a1a" stroke="#1a1a1a"></path><path d="M357 0L324 49L353 81Z" fill="#d2d2d2" stroke="#d2d2d2"></path><path d="M571 0L499 0L558 62Z" fill="#878787" stroke="#878787"></path><path d="M408 459L419 376L401 383Z" fill="#585858" stroke="#585858"></path><path d="M480 459L488 521L519 465Z" fill="#9f9f9f" stroke="#9f9f9f"></path><path d="M649 50L618 102L706 61Z" fill="#1a1a1a" stroke="#1a1a1a"></path><path d="M579 39L571 0L558 62Z" fill="#d2d2d2" stroke="#d2d2d2"></path><path d="M726 99L618 102L681 161Z" fill="#878787" stroke="#878787"></path><path d="M499 0L440 0L451 5Z" fill="#585858" stroke="#585858"></path><path d="M451 5L440 0L408 35Z" fill="#d2d2d2" stroke="#d2d2d2"></path><path d="M197 225L259 282L295 221Z" fill="#ececec" stroke="#ececec"></path><path d="M272 277L259 282L288 281Z" fill="#d2d2d2" stroke="#d2d2d2"></path><path d="M346 390L408 459L401 383Z" fill="#585858" stroke="#585858"></path><path d="M593 458L563 437L529 456Z" fill="#b8b8b8" stroke="#b8b8b8"></path><path d="M593 458L618 442L569 428Z" fill="#424242" stroke="#424242"></path><path d="M753 208L688 259L764 238Z" fill="#9f9f9f" stroke="#9f9f9f"></path><path d="M712 188L731 172L681 161Z" fill="#878787" stroke="#878787"></path><path d="M605 502L593 458L529 456Z" fill="#424242" stroke="#424242"></path><path d="M634 0L571 0L579 39Z" fill="#d2d2d2" stroke="#d2d2d2"></path><path d="M357 0L353 81L408 35Z" fill="#ececec" stroke="#ececec"></path><path d="M247 110L250 130L290 133Z" fill="#d2d2d2" stroke="#d2d2d2"></path><path d="M440 0L396 0L408 35Z" fill="#b8b8b8" stroke="#b8b8b8"></path><path d="M593 458L627 452L618 442Z" fill="#1a1a1a" stroke="#1a1a1a"></path><path d="M618 442L627 452L672 358Z" fill="#878787" stroke="#878787"></path><path d="M396 0L391 0L408 35Z" fill="#424242" stroke="#424242"></path><path d="M250 130L251 152L290 133Z" fill="#878787" stroke="#878787"></path><path d="M290 133L251 152L295 221Z" fill="#2e2e2e" stroke="#2e2e2e"></path><path d="M764 238L688 285L691 317Z" fill="#b8b8b8" stroke="#b8b8b8"></path><path d="M764 238L688 259L688 285Z" fill="#b8b8b8" stroke="#b8b8b8"></path><path d="M764 238L691 317L808 299Z" fill="#585858" stroke="#585858"></path><path d="M215 329L250 326L259 282Z" fill="#424242" stroke="#424242"></path><path d="M259 282L250 326L302 311Z" fill="#585858" stroke="#585858"></path><path d="M346 390L327 438L408 459Z" fill="#b8b8b8" stroke="#b8b8b8"></path><path d="M287 432L327 438L346 390Z" fill="#b8b8b8" stroke="#b8b8b8"></path><path d="M247 110L290 133L322 93Z" fill="#b8b8b8" stroke="#b8b8b8"></path><path d="M251 152L233 163L295 221Z" fill="#1a1a1a" stroke="#1a1a1a"></path><path d="M673 0L634 0L636 41Z" fill="#9f9f9f" stroke="#9f9f9f"></path><path d="M749 134L726 99L681 161Z" fill="#585858" stroke="#585858"></path><path d="M749 134L681 161L731 172Z" fill="#2e2e2e" stroke="#2e2e2e"></path><path d="M722 395L691 317L672 358Z" fill="#878787" stroke="#878787"></path><path d="M770 180L749 134L731 172Z" fill="#424242" stroke="#424242"></path><path d="M250 130L233 163L251 152Z" fill="#b8b8b8" stroke="#b8b8b8"></path><path d="M391 0L357 0L408 35Z" fill="#424242" stroke="#424242"></path><path d="M255 51L247 110L322 93Z" fill="#b8b8b8" stroke="#b8b8b8"></path><path d="M636 41L634 0L579 39Z" fill="#878787" stroke="#878787"></path><path d="M673 0L636 41L649 50Z" fill="#424242" stroke="#424242"></path><path d="M287 432L330 451L327 438Z" fill="#424242" stroke="#424242"></path><path d="M327 438L330 451L408 459Z" fill="#000000" stroke="#000000"></path><path d="M408 459L431 512L459 469Z" fill="#ececec" stroke="#ececec"></path><path d="M726 99L706 61L618 102Z" fill="#000000" stroke="#000000"></path><path d="M770 180L731 172L753 208Z" fill="#585858" stroke="#585858"></path><path d="M749 0L699 15L706 61Z" fill="#9f9f9f" stroke="#9f9f9f"></path><path d="M241 368L249 353L215 329Z" fill="#1a1a1a" stroke="#1a1a1a"></path><path d="M250 326L249 353L302 311Z" fill="#878787" stroke="#878787"></path><path d="M255 51L322 93L324 49Z" fill="#2e2e2e" stroke="#2e2e2e"></path><path d="M250 130L228 117L233 163Z" fill="#ececec" stroke="#ececec"></path><path d="M723 400L722 395L672 358Z" fill="#424242" stroke="#424242"></path><path d="M786 226L770 180L753 208Z" fill="#585858" stroke="#585858"></path><path d="M627 452L723 400L672 358Z" fill="#ececec" stroke="#ececec"></path><path d="M824 258L786 226L764 238Z" fill="#9f9f9f" stroke="#9f9f9f"></path><path d="M383 540L431 512L408 459Z" fill="#2e2e2e" stroke="#2e2e2e"></path><path d="M459 469L488 521L480 459Z" fill="#d2d2d2" stroke="#d2d2d2"></path><path d="M538 533L605 502L529 456Z" fill="#878787" stroke="#878787"></path><path d="M593 458L605 502L627 452Z" fill="#000000" stroke="#000000"></path><path d="M357 0L329 0L324 49Z" fill="#878787" stroke="#878787"></path><path d="M431 512L488 521L459 469Z" fill="#b8b8b8" stroke="#b8b8b8"></path><path d="M249 353L287 432L346 390Z" fill="#b8b8b8" stroke="#b8b8b8"></path><path d="M377 540L383 540L357 533Z" fill="#424242" stroke="#424242"></path><path d="M215 329L249 353L250 326Z" fill="#2e2e2e" stroke="#2e2e2e"></path><path d="M249 353L241 368L287 432Z" fill="#424242" stroke="#424242"></path><path d="M538 533L529 456L519 465Z" fill="#424242" stroke="#424242"></path><path d="M627 452L700 470L723 400Z" fill="#878787" stroke="#878787"></path><path d="M808 299L691 317L722 395Z" fill="#2e2e2e" stroke="#2e2e2e"></path><path d="M764 238L786 226L753 208Z" fill="#424242" stroke="#424242"></path><path d="M235 68L228 117L247 110Z" fill="#d2d2d2" stroke="#d2d2d2"></path><path d="M247 110L228 117L250 130Z" fill="#1a1a1a" stroke="#1a1a1a"></path><path d="M181 263L215 329L259 282Z" fill="#424242" stroke="#424242"></path><path d="M699 15L649 50L706 61Z" fill="#1a1a1a" stroke="#1a1a1a"></path><path d="M699 15L673 0L649 50Z" fill="#9f9f9f" stroke="#9f9f9f"></path><path d="M197 225L295 221L233 163Z" fill="#2e2e2e" stroke="#2e2e2e"></path><path d="M183 172L197 225L233 163Z" fill="#424242" stroke="#424242"></path><path d="M329 0L291 16L324 49Z" fill="#000000" stroke="#000000"></path><path d="M758 62L706 61L726 99Z" fill="#ececec" stroke="#ececec"></path><path d="M758 62L726 99L798 107Z" fill="#585858" stroke="#585858"></path><path d="M291 16L255 51L324 49Z" fill="#424242" stroke="#424242"></path><path d="M534 540L538 533L488 521Z" fill="#424242" stroke="#424242"></path><path d="M488 521L538 533L519 465Z" fill="#d2d2d2" stroke="#d2d2d2"></path><path d="M431 512L486 540L488 521Z" fill="#878787" stroke="#878787"></path><path d="M486 540L534 540L488 521Z" fill="#b8b8b8" stroke="#b8b8b8"></path><path d="M538 533L563 540L605 502Z" fill="#878787" stroke="#878787"></path><path d="M191 85L235 68L192 44Z" fill="#1a1a1a" stroke="#1a1a1a"></path><path d="M255 51L235 68L247 110Z" fill="#878787" stroke="#878787"></path><path d="M228 117L183 172L233 163Z" fill="#9f9f9f" stroke="#9f9f9f"></path><path d="M181 263L186 256L135 254Z" fill="#9f9f9f" stroke="#9f9f9f"></path><path d="M197 225L186 256L259 282Z" fill="#1a1a1a" stroke="#1a1a1a"></path><path d="M259 473L253 429L208 455Z" fill="#6f6f6f" stroke="#6f6f6f"></path><path d="M208 455L253 429L241 368Z" fill="#ececec" stroke="#ececec"></path><path d="M241 368L253 429L287 432Z" fill="#585858" stroke="#585858"></path><path d="M357 533L408 459L330 451Z" fill="#1a1a1a" stroke="#1a1a1a"></path><path d="M431 512L383 540L486 540Z" fill="#d2d2d2" stroke="#d2d2d2"></path><path d="M687 489L700 470L627 452Z" fill="#000000" stroke="#000000"></path><path d="M817 364L808 299L722 395Z" fill="#424242" stroke="#424242"></path><path d="M687 489L627 452L605 502Z" fill="#ececec" stroke="#ececec"></path><path d="M534 540L563 540L538 533Z" fill="#000000" stroke="#000000"></path><path d="M798 107L726 99L749 134Z" fill="#ececec" stroke="#ececec"></path><path d="M798 107L749 134L770 180Z" fill="#ececec" stroke="#ececec"></path><path d="M135 254L186 256L197 225Z" fill="#424242" stroke="#424242"></path><path d="M186 256L181 263L259 282Z" fill="#2e2e2e" stroke="#2e2e2e"></path><path d="M563 540L581 540L605 502Z" fill="#d2d2d2" stroke="#d2d2d2"></path><path d="M700 470L734 444L723 400Z" fill="#ececec" stroke="#ececec"></path><path d="M154 143L183 172L228 117Z" fill="#6f6f6f" stroke="#6f6f6f"></path><path d="M708 540L687 489L605 502Z" fill="#d2d2d2" stroke="#d2d2d2"></path><path d="M700 470L738 467L734 444Z" fill="#878787" stroke="#878787"></path><path d="M817 364L722 395L781 431Z" fill="#424242" stroke="#424242"></path><path d="M821 167L798 107L770 180Z" fill="#878787" stroke="#878787"></path><path d="M383 540L408 459L357 533Z" fill="#878787" stroke="#878787"></path><path d="M357 533L330 451L331 528Z" fill="#d2d2d2" stroke="#d2d2d2"></path><path d="M821 167L770 180L786 226Z" fill="#b8b8b8" stroke="#b8b8b8"></path><path d="M259 473L330 451L287 432Z" fill="#000000" stroke="#000000"></path><path d="M808 299L824 258L764 238Z" fill="#585858" stroke="#585858"></path><path d="M841 214L821 167L786 226Z" fill="#000000" stroke="#000000"></path><path d="M253 429L259 473L287 432Z" fill="#d2d2d2" stroke="#d2d2d2"></path><path d="M260 498L259 473L208 455Z" fill="#ececec" stroke="#ececec"></path><path d="M687 489L738 467L700 470Z" fill="#9f9f9f" stroke="#9f9f9f"></path><path d="M781 431L722 395L723 400Z" fill="#1a1a1a" stroke="#1a1a1a"></path><path d="M758 515L738 467L687 489Z" fill="#d2d2d2" stroke="#d2d2d2"></path><path d="M291 524L331 528L330 451Z" fill="#d2d2d2" stroke="#d2d2d2"></path><path d="M357 533L337 540L377 540Z" fill="#424242" stroke="#424242"></path><path d="M192 44L235 68L255 51Z" fill="#ececec" stroke="#ececec"></path><path d="M235 68L191 85L228 117Z" fill="#1a1a1a" stroke="#1a1a1a"></path><path d="M808 299L832 271L824 258Z" fill="#6f6f6f" stroke="#6f6f6f"></path><path d="M824 258L841 214L786 226Z" fill="#9f9f9f" stroke="#9f9f9f"></path><path d="M850 278L832 271L808 299Z" fill="#878787" stroke="#878787"></path><path d="M291 524L337 540L331 528Z" fill="#585858" stroke="#585858"></path><path d="M331 528L337 540L357 533Z" fill="#6f6f6f" stroke="#6f6f6f"></path><path d="M836 102L806 84L798 107Z" fill="#ececec" stroke="#ececec"></path><path d="M798 107L806 84L758 62Z" fill="#2e2e2e" stroke="#2e2e2e"></path><path d="M758 62L749 0L706 61Z" fill="#2e2e2e" stroke="#2e2e2e"></path><path d="M763 0L749 0L758 62Z" fill="#1a1a1a" stroke="#1a1a1a"></path><path d="M699 15L749 0L673 0Z" fill="#585858" stroke="#585858"></path><path d="M154 143L155 171L183 172Z" fill="#2e2e2e" stroke="#2e2e2e"></path><path d="M183 172L136 195L197 225Z" fill="#d2d2d2" stroke="#d2d2d2"></path><path d="M868 250L841 214L824 258Z" fill="#000000" stroke="#000000"></path><path d="M852 134L836 102L798 107Z" fill="#2e2e2e" stroke="#2e2e2e"></path><path d="M781 431L723 400L734 444Z" fill="#9f9f9f" stroke="#9f9f9f"></path><path d="M738 467L781 431L734 444Z" fill="#1a1a1a" stroke="#1a1a1a"></path><path d="M291 16L231 0L255 51Z" fill="#9f9f9f" stroke="#9f9f9f"></path><path d="M329 0L231 0L291 16Z" fill="#6f6f6f" stroke="#6f6f6f"></path><path d="M191 85L154 143L228 117Z" fill="#000000" stroke="#000000"></path><path d="M144 127L154 143L191 85Z" fill="#9f9f9f" stroke="#9f9f9f"></path><path d="M163 365L241 368L215 329Z" fill="#d2d2d2" stroke="#d2d2d2"></path><path d="M259 473L291 524L330 451Z" fill="#585858" stroke="#585858"></path><path d="M260 498L291 524L259 473Z" fill="#d2d2d2" stroke="#d2d2d2"></path><path d="M800 0L763 0L758 62Z" fill="#b8b8b8" stroke="#b8b8b8"></path><path d="M135 254L144 296L181 263Z" fill="#9f9f9f" stroke="#9f9f9f"></path><path d="M181 263L146 308L215 329Z" fill="#878787" stroke="#878787"></path><path d="M135 254L197 225L136 195Z" fill="#000000" stroke="#000000"></path><path d="M144 296L146 308L181 263Z" fill="#878787" stroke="#878787"></path><path d="M146 308L163 365L215 329Z" fill="#424242" stroke="#424242"></path><path d="M231 0L192 44L255 51Z" fill="#1a1a1a" stroke="#1a1a1a"></path><path d="M842 346L850 278L808 299Z" fill="#424242" stroke="#424242"></path><path d="M832 271L868 250L824 258Z" fill="#6f6f6f" stroke="#6f6f6f"></path><path d="M144 127L144 158L154 143Z" fill="#585858" stroke="#585858"></path><path d="M154 143L144 158L155 171Z" fill="#585858" stroke="#585858"></path><path d="M121 372L163 365L146 308Z" fill="#000000" stroke="#000000"></path><path d="M136 195L183 172L155 171Z" fill="#9f9f9f" stroke="#9f9f9f"></path><path d="M144 158L136 195L155 171Z" fill="#000000" stroke="#000000"></path><path d="M151 391L208 455L241 368Z" fill="#1a1a1a" stroke="#1a1a1a"></path><path d="M260 498L264 540L291 524Z" fill="#1a1a1a" stroke="#1a1a1a"></path><path d="M850 350L842 346L817 364Z" fill="#9f9f9f" stroke="#9f9f9f"></path><path d="M817 364L842 346L808 299Z" fill="#ececec" stroke="#ececec"></path><path d="M852 134L798 107L821 167Z" fill="#1a1a1a" stroke="#1a1a1a"></path><path d="M806 84L800 0L758 62Z" fill="#878787" stroke="#878787"></path><path d="M852 134L821 167L841 214Z" fill="#585858" stroke="#585858"></path><path d="M161 61L144 127L191 85Z" fill="#9f9f9f" stroke="#9f9f9f"></path><path d="M74 218L76 222L136 195Z" fill="#b8b8b8" stroke="#b8b8b8"></path><path d="M943 168L852 134L841 214Z" fill="#000000" stroke="#000000"></path><path d="M581 540L708 540L605 502Z" fill="#b8b8b8" stroke="#b8b8b8"></path><path d="M738 467L788 488L781 431Z" fill="#1a1a1a" stroke="#1a1a1a"></path><path d="M877 374L850 350L817 364Z" fill="#6f6f6f" stroke="#6f6f6f"></path><path d="M899 253L868 250L896 289Z" fill="#1a1a1a" stroke="#1a1a1a"></path><path d="M850 278L868 250L832 271Z" fill="#2e2e2e" stroke="#2e2e2e"></path><path d="M831 443L817 364L781 431Z" fill="#b8b8b8" stroke="#b8b8b8"></path><path d="M842 346L898 319L850 278Z" fill="#2e2e2e" stroke="#2e2e2e"></path><path d="M184 6L161 61L192 44Z" fill="#585858" stroke="#585858"></path><path d="M192 44L161 61L191 85Z" fill="#585858" stroke="#585858"></path><path d="M889 91L854 119L852 134Z" fill="#585858" stroke="#585858"></path><path d="M852 134L854 119L836 102Z" fill="#ececec" stroke="#ececec"></path><path d="M822 0L800 0L806 84Z" fill="#878787" stroke="#878787"></path><path d="M121 372L151 391L163 365Z" fill="#878787" stroke="#878787"></path><path d="M163 365L151 391L241 368Z" fill="#9f9f9f" stroke="#9f9f9f"></path><path d="M121 372L146 308L72 343Z" fill="#b8b8b8" stroke="#b8b8b8"></path><path d="M231 0L198 0L192 44Z" fill="#d2d2d2" stroke="#d2d2d2"></path><path d="M239 540L260 498L224 540Z" fill="#1a1a1a" stroke="#1a1a1a"></path><path d="M239 540L264 540L260 498Z" fill="#1a1a1a" stroke="#1a1a1a"></path><path d="M291 524L264 540L337 540Z" fill="#2e2e2e" stroke="#2e2e2e"></path><path d="M822 0L806 84L827 -1Z" fill="#2e2e2e" stroke="#2e2e2e"></path><path d="M732 540L758 515L687 489Z" fill="#1a1a1a" stroke="#1a1a1a"></path><path d="M198 0L184 6L192 44Z" fill="#b8b8b8" stroke="#b8b8b8"></path><path d="M708 540L732 540L687 489Z" fill="#ececec" stroke="#ececec"></path><path d="M162 439L178 457L208 455Z" fill="#b8b8b8" stroke="#b8b8b8"></path><path d="M795 487L788 488L798 540Z" fill="#1a1a1a" stroke="#1a1a1a"></path><path d="M758 515L788 488L738 467Z" fill="#1a1a1a" stroke="#1a1a1a"></path><path d="M151 391L162 439L208 455Z" fill="#ececec" stroke="#ececec"></path><path d="M781 540L788 488L758 515Z" fill="#ececec" stroke="#ececec"></path><path d="M788 488L795 487L781 431Z" fill="#9f9f9f" stroke="#9f9f9f"></path><path d="M795 487L831 443L781 431Z" fill="#d2d2d2" stroke="#d2d2d2"></path><path d="M72 343L146 308L144 296Z" fill="#b8b8b8" stroke="#b8b8b8"></path><path d="M151 391L122 428L162 439Z" fill="#000000" stroke="#000000"></path><path d="M95 265L144 296L135 254Z" fill="#585858" stroke="#585858"></path><path d="M224 540L260 498L208 455Z" fill="#d2d2d2" stroke="#d2d2d2"></path><path d="M224 540L208 455L178 457Z" fill="#878787" stroke="#878787"></path><path d="M76 222L135 254L136 195Z" fill="#424242" stroke="#424242"></path><path d="M76 222L95 265L135 254Z" fill="#1a1a1a" stroke="#1a1a1a"></path><path d="M84 120L144 158L144 127Z" fill="#1a1a1a" stroke="#1a1a1a"></path><path d="M827 -1L806 84L836 102Z" fill="#b8b8b8" stroke="#b8b8b8"></path><path d="M896 289L868 250L850 278Z" fill="#b8b8b8" stroke="#b8b8b8"></path><path d="M868 250L899 253L841 214Z" fill="#1a1a1a" stroke="#1a1a1a"></path><path d="M889 91L827 -1L836 102Z" fill="#d2d2d2" stroke="#d2d2d2"></path><path d="M896 289L850 278L898 319Z" fill="#d2d2d2" stroke="#d2d2d2"></path><path d="M134 0L118 87L161 61Z" fill="#2e2e2e" stroke="#2e2e2e"></path><path d="M161 61L118 87L144 127Z" fill="#878787" stroke="#878787"></path><path d="M898 319L842 346L850 350Z" fill="#2e2e2e" stroke="#2e2e2e"></path><path d="M889 91L836 102L854 119Z" fill="#b8b8b8" stroke="#b8b8b8"></path><path d="M822 0L827 -1L800 0Z" fill="#6f6f6f" stroke="#6f6f6f"></path><path d="M800 0L827 -1L763 0Z" fill="#ececec" stroke="#ececec"></path><path d="M763 0L827 -1L749 0Z" fill="#000000" stroke="#000000"></path><path d="M749 0L827 -1L673 0Z" fill="#d2d2d2" stroke="#d2d2d2"></path><path d="M673 0L827 -1L634 0Z" fill="#d2d2d2" stroke="#d2d2d2"></path><path d="M634 0L827 -1L571 0Z" fill="#2e2e2e" stroke="#2e2e2e"></path><path d="M571 0L827 -1L499 0Z" fill="#b8b8b8" stroke="#b8b8b8"></path><path d="M499 0L827 -1L440 0Z" fill="#424242" stroke="#424242"></path><path d="M440 0L827 -1L396 0Z" fill="#d2d2d2" stroke="#d2d2d2"></path><path d="M396 0L827 -1L391 0Z" fill="#b8b8b8" stroke="#b8b8b8"></path><path d="M391 0L827 -1L357 0Z" fill="#9f9f9f" stroke="#9f9f9f"></path><path d="M357 0L827 -1L329 0Z" fill="#ececec" stroke="#ececec"></path><path d="M329 0L827 -1L231 0Z" fill="#6f6f6f" stroke="#6f6f6f"></path><path d="M231 0L827 -1L198 0Z" fill="#585858" stroke="#585858"></path><path d="M884 400L877 374L817 364Z" fill="#2e2e2e" stroke="#2e2e2e"></path><path d="M151 540L224 540L178 457Z" fill="#6f6f6f" stroke="#6f6f6f"></path><path d="M795 487L838 462L831 443Z" fill="#585858" stroke="#585858"></path><path d="M831 443L884 400L817 364Z" fill="#878787" stroke="#878787"></path><path d="M825 504L838 462L795 487Z" fill="#9f9f9f" stroke="#9f9f9f"></path><path d="M877 374L898 319L850 350Z" fill="#585858" stroke="#585858"></path><path d="M896 289L914 261L899 253Z" fill="#d2d2d2" stroke="#d2d2d2"></path><path d="M121 372L114 391L151 391Z" fill="#6f6f6f" stroke="#6f6f6f"></path><path d="M162 439L123 437L178 457Z" fill="#9f9f9f" stroke="#9f9f9f"></path><path d="M70 382L114 391L121 372Z" fill="#585858" stroke="#585858"></path><path d="M732 540L781 540L758 515Z" fill="#d2d2d2" stroke="#d2d2d2"></path><path d="M943 168L889 91L852 134Z" fill="#d2d2d2" stroke="#d2d2d2"></path><path d="M74 218L136 195L84 120Z" fill="#d2d2d2" stroke="#d2d2d2"></path><path d="M95 265L72 343L144 296Z" fill="#1a1a1a" stroke="#1a1a1a"></path><path d="M936 276L914 261L896 289Z" fill="#ececec" stroke="#ececec"></path><path d="M899 253L943 168L841 214Z" fill="#9f9f9f" stroke="#9f9f9f"></path><path d="M123 437L122 428L88 415Z" fill="#ececec" stroke="#ececec"></path><path d="M114 391L122 428L151 391Z" fill="#6f6f6f" stroke="#6f6f6f"></path><path d="M84 120L136 195L144 158Z" fill="#d2d2d2" stroke="#d2d2d2"></path><path d="M48 306L72 343L95 265Z" fill="#2e2e2e" stroke="#2e2e2e"></path><path d="M877 374L918 359L898 319Z" fill="#d2d2d2" stroke="#d2d2d2"></path><path d="M898 319L936 276L896 289Z" fill="#1a1a1a" stroke="#1a1a1a"></path><path d="M892 415L884 400L831 443Z" fill="#d2d2d2" stroke="#d2d2d2"></path><path d="M892 415L831 443L838 462Z" fill="#000000" stroke="#000000"></path><path d="M89 410L122 428L114 391Z" fill="#d2d2d2" stroke="#d2d2d2"></path><path d="M122 428L123 437L162 439Z" fill="#6f6f6f" stroke="#6f6f6f"></path><path d="M798 540L825 504L795 487Z" fill="#878787" stroke="#878787"></path><path d="M118 87L84 120L144 127Z" fill="#9f9f9f" stroke="#9f9f9f"></path><path d="M70 101L84 120L118 87Z" fill="#585858" stroke="#585858"></path><path d="M198 0L134 0L184 6Z" fill="#d2d2d2" stroke="#d2d2d2"></path><path d="M184 6L134 0L161 61Z" fill="#b8b8b8" stroke="#b8b8b8"></path><path d="M827 -1L134 0L198 0Z" fill="#424242" stroke="#424242"></path><path d="M781 540L798 540L788 488Z" fill="#000000" stroke="#000000"></path><path d="M960 445L892 415L960 450Z" fill="#585858" stroke="#585858"></path><path d="M884 400L918 359L877 374Z" fill="#585858" stroke="#585858"></path><path d="M906 542L838 462L825 504Z" fill="#1a1a1a" stroke="#1a1a1a"></path><path d="M48 306L95 265L23 282Z" fill="#9f9f9f" stroke="#9f9f9f"></path><path d="M892 415L918 359L884 400Z" fill="#d2d2d2" stroke="#d2d2d2"></path><path d="M70 382L89 410L114 391Z" fill="#878787" stroke="#878787"></path><path d="M123 437L151 540L178 457Z" fill="#9f9f9f" stroke="#9f9f9f"></path><path d="M960 350L936 276L898 319Z" fill="#000000" stroke="#000000"></path><path d="M956 175L943 168L960 193Z" fill="#878787" stroke="#878787"></path><path d="M74 81L70 101L118 87Z" fill="#9f9f9f" stroke="#9f9f9f"></path><path d="M0 168L36 227L74 218Z" fill="#ececec" stroke="#ececec"></path><path d="M0 333L70 382L72 343Z" fill="#b8b8b8" stroke="#b8b8b8"></path><path d="M70 382L88 415L89 410Z" fill="#6f6f6f" stroke="#6f6f6f"></path><path d="M89 410L88 415L122 428Z" fill="#9f9f9f" stroke="#9f9f9f"></path><path d="M134 0L74 81L118 87Z" fill="#585858" stroke="#585858"></path><path d="M72 343L70 382L121 372Z" fill="#b8b8b8" stroke="#b8b8b8"></path><path d="M95 265L76 222L36 227Z" fill="#424242" stroke="#424242"></path><path d="M36 227L76 222L74 218Z" fill="#ececec" stroke="#ececec"></path><path d="M943 168L899 253L960 193Z" fill="#585858" stroke="#585858"></path><path d="M889 91L924 0L827 -1Z" fill="#9f9f9f" stroke="#9f9f9f"></path><path d="M798 540L835 540L825 504Z" fill="#9f9f9f" stroke="#9f9f9f"></path><path d="M960 387L960 350L918 359Z" fill="#000000" stroke="#000000"></path><path d="M19 266L36 227L0 241Z" fill="#ececec" stroke="#ececec"></path><path d="M0 168L74 218L84 120Z" fill="#2e2e2e" stroke="#2e2e2e"></path><path d="M99 540L151 540L123 437Z" fill="#1a1a1a" stroke="#1a1a1a"></path><path d="M59 441L123 437L88 415Z" fill="#9f9f9f" stroke="#9f9f9f"></path><path d="M960 107L929 69L889 91Z" fill="#1a1a1a" stroke="#1a1a1a"></path><path d="M960 229L899 253L914 261Z" fill="#000000" stroke="#000000"></path><path d="M943 168L960 148L889 91Z" fill="#ececec" stroke="#ececec"></path><path d="M960 267L960 229L936 276Z" fill="#ececec" stroke="#ececec"></path><path d="M936 276L960 229L914 261Z" fill="#878787" stroke="#878787"></path><path d="M960 350L960 267L936 276Z" fill="#1a1a1a" stroke="#1a1a1a"></path><path d="M960 229L960 193L899 253Z" fill="#878787" stroke="#878787"></path><path d="M960 193L960 148L956 175Z" fill="#424242" stroke="#424242"></path><path d="M956 175L960 148L943 168Z" fill="#d2d2d2" stroke="#d2d2d2"></path><path d="M19 266L23 282L95 265Z" fill="#d2d2d2" stroke="#d2d2d2"></path><path d="M48 306L0 333L72 343Z" fill="#b8b8b8" stroke="#b8b8b8"></path><path d="M36 227L19 266L95 265Z" fill="#000000" stroke="#000000"></path><path d="M0 241L36 227L0 168Z" fill="#ececec" stroke="#ececec"></path><path d="M960 387L918 359L892 415Z" fill="#878787" stroke="#878787"></path><path d="M918 359L960 350L898 319Z" fill="#2e2e2e" stroke="#2e2e2e"></path><path d="M69 0L50 49L74 81Z" fill="#585858" stroke="#585858"></path><path d="M74 81L50 49L70 101Z" fill="#424242" stroke="#424242"></path><path d="M960 148L960 107L889 91Z" fill="#d2d2d2" stroke="#d2d2d2"></path><path d="M0 390L59 441L70 382Z" fill="#424242" stroke="#424242"></path><path d="M70 382L59 441L88 415Z" fill="#878787" stroke="#878787"></path><path d="M0 313L48 306L23 282Z" fill="#9f9f9f" stroke="#9f9f9f"></path><path d="M827 -1L69 0L134 0Z" fill="#ececec" stroke="#ececec"></path><path d="M134 0L69 0L74 81Z" fill="#d2d2d2" stroke="#d2d2d2"></path><path d="M929 69L924 0L889 91Z" fill="#ececec" stroke="#ececec"></path><path d="M960 23L924 0L929 69Z" fill="#000000" stroke="#000000"></path><path d="M960 445L960 387L892 415Z" fill="#1a1a1a" stroke="#1a1a1a"></path><path d="M0 168L84 120L0 129Z" fill="#424242" stroke="#424242"></path><path d="M19 266L0 267L23 282Z" fill="#000000" stroke="#000000"></path><path d="M0 241L0 267L19 266Z" fill="#2e2e2e" stroke="#2e2e2e"></path><path d="M0 472L59 472L59 441Z" fill="#2e2e2e" stroke="#2e2e2e"></path><path d="M59 441L59 472L123 437Z" fill="#585858" stroke="#585858"></path><path d="M69 0L54 0L50 49Z" fill="#b8b8b8" stroke="#b8b8b8"></path><path d="M0 129L84 120L70 101Z" fill="#000000" stroke="#000000"></path><path d="M827 -1L54 0L69 0Z" fill="#1a1a1a" stroke="#1a1a1a"></path><path d="M0 129L70 101L0 117Z" fill="#424242" stroke="#424242"></path><path d="M92 537L99 540L123 437Z" fill="#d2d2d2" stroke="#d2d2d2"></path><path d="M0 267L0 313L23 282Z" fill="#d2d2d2" stroke="#d2d2d2"></path><path d="M59 472L92 537L123 437Z" fill="#9f9f9f" stroke="#9f9f9f"></path><path d="M0 313L0 333L48 306Z" fill="#000000" stroke="#000000"></path><path d="M0 117L70 101L50 49Z" fill="#d2d2d2" stroke="#d2d2d2"></path><path d="M0 53L0 117L50 49Z" fill="#9f9f9f" stroke="#9f9f9f"></path><path d="M960 450L892 415L911 540Z" fill="#585858" stroke="#585858"></path><path d="M960 107L960 23L929 69Z" fill="#878787" stroke="#878787"></path><path d="M911 540L892 415L838 462Z" fill="#1a1a1a" stroke="#1a1a1a"></path><path d="M798 540L906 542L835 540Z" fill="#1a1a1a" stroke="#1a1a1a"></path><path d="M835 540L906 542L825 504Z" fill="#6f6f6f" stroke="#6f6f6f"></path><path d="M781 540L906 542L798 540Z" fill="#6f6f6f" stroke="#6f6f6f"></path><path d="M732 540L906 542L781 540Z" fill="#9f9f9f" stroke="#9f9f9f"></path><path d="M708 540L906 542L732 540Z" fill="#9f9f9f" stroke="#9f9f9f"></path><path d="M581 540L906 542L708 540Z" fill="#585858" stroke="#585858"></path><path d="M563 540L906 542L581 540Z" fill="#424242" stroke="#424242"></path><path d="M534 540L906 542L563 540Z" fill="#1a1a1a" stroke="#1a1a1a"></path><path d="M486 540L906 542L534 540Z" fill="#878787" stroke="#878787"></path><path d="M383 540L906 542L486 540Z" fill="#2e2e2e" stroke="#2e2e2e"></path><path d="M377 540L906 542L383 540Z" fill="#d2d2d2" stroke="#d2d2d2"></path><path d="M337 540L906 542L377 540Z" fill="#878787" stroke="#878787"></path><path d="M264 540L906 542L337 540Z" fill="#424242" stroke="#424242"></path><path d="M239 540L906 542L264 540Z" fill="#9f9f9f" stroke="#9f9f9f"></path><path d="M224 540L906 542L239 540Z" fill="#6f6f6f" stroke="#6f6f6f"></path><path d="M151 540L906 542L224 540Z" fill="#1a1a1a" stroke="#1a1a1a"></path><path d="M99 540L906 542L151 540Z" fill="#d2d2d2" stroke="#d2d2d2"></path><path d="M906 542L911 540L838 462Z" fill="#000000" stroke="#000000"></path><path d="M0 333L0 390L70 382Z" fill="#000000" stroke="#000000"></path><path d="M59 472L63 540L92 537Z" fill="#2e2e2e" stroke="#2e2e2e"></path><path d="M960 23L960 0L924 0Z" fill="#ececec" stroke="#ececec"></path><path d="M924 0L960 0L827 -1Z" fill="#878787" stroke="#878787"></path><path d="M0 0L0 53L50 49Z" fill="#1a1a1a" stroke="#1a1a1a"></path><path d="M0 540L63 540L59 472Z" fill="#000000" stroke="#000000"></path><path d="M92 537L63 540L99 540Z" fill="#9f9f9f" stroke="#9f9f9f"></path><path d="M99 540L63 540L906 542Z" fill="#6f6f6f" stroke="#6f6f6f"></path><path d="M0 390L0 434L59 441Z" fill="#424242" stroke="#424242"></path><path d="M827 -1L0 0L54 0Z" fill="#b8b8b8" stroke="#b8b8b8"></path><path d="M54 0L0 0L50 49Z" fill="#9f9f9f" stroke="#9f9f9f"></path><path d="M0 434L0 472L59 441Z" fill="#000000" stroke="#000000"></path><path d="M960 540L960 528L911 540Z" fill="#000000" stroke="#000000"></path><path d="M911 540L960 528L960 450Z" fill="#424242" stroke="#424242"></path><path d="M906 542L960 540L911 540Z" fill="#424242" stroke="#424242"></path><path d="M0 472L0 540L59 472Z" fill="#000000" stroke="#000000"></path><path d="M63 540L0 540L906 542Z" fill="#b8b8b8" stroke="#b8b8b8"></path></g></svg>